<svg xmlns="http://www.w3.org/2000/svg" xmlns:xlink="http://www.w3.org/1999/xlink" width="500" zoomAndPan="magnify" viewBox="0 0 375 374.999991" height="500" preserveAspectRatio="xMidYMid meet" version="1.0"><defs><g/><clipPath id="e695144f18"><path d="M 70.328125 88.890625 L 304.328125 88.890625 L 304.328125 205.890625 L 70.328125 205.890625 Z M 70.328125 88.890625 " clip-rule="nonzero"/></clipPath></defs><g clip-path="url(#e695144f18)"><path fill="#ab3510" d="M 225.507812 206.054688 L 218.992188 206.054688 C 218.992188 188.710938 204.886719 174.558594 187.5 174.558594 C 170.109375 174.558594 156.003906 188.710938 156.003906 206.054688 L 149.488281 206.054688 C 149.488281 185.105469 166.550781 168.046875 187.5 168.046875 C 208.445312 168.046875 225.507812 185.105469 225.507812 206.054688 Z M 187.5 152.203125 C 157.785156 152.203125 133.648438 176.339844 133.648438 206.054688 L 140.164062 206.054688 C 140.164062 179.949219 161.394531 158.71875 187.5 158.71875 C 213.601562 158.71875 234.832031 179.949219 234.832031 206.054688 L 241.347656 206.054688 C 241.347656 176.339844 217.210938 152.203125 187.5 152.203125 Z M 187.5 136.363281 C 149.066406 136.363281 117.808594 167.625 117.808594 206.054688 L 124.324219 206.054688 C 124.324219 171.230469 152.628906 142.925781 187.453125 142.925781 C 222.273438 142.925781 250.625 171.230469 250.625 206.054688 L 257.140625 206.054688 C 257.1875 167.625 225.929688 136.363281 187.5 136.363281 Z M 187.5 120.523438 C 140.351562 120.523438 101.96875 158.90625 101.96875 206.054688 L 108.484375 206.054688 C 108.484375 162.515625 143.914062 127.085938 187.453125 127.085938 C 230.988281 127.085938 266.417969 162.515625 266.417969 206.054688 L 272.933594 206.054688 C 273.027344 158.90625 234.644531 120.523438 187.5 120.523438 Z M 259.15625 134.394531 C 240.035156 115.273438 214.585938 104.730469 187.5 104.730469 C 160.410156 104.730469 134.960938 115.273438 115.839844 134.394531 C 96.71875 153.515625 86.175781 178.964844 86.175781 206.054688 L 92.6875 206.054688 C 92.6875 153.796875 135.195312 111.242188 187.5 111.242188 C 239.800781 111.242188 282.308594 153.796875 282.308594 206.054688 L 288.820312 206.054688 C 288.820312 178.964844 278.277344 153.515625 259.15625 134.394531 Z M 270.355469 123.195312 C 248.234375 101.074219 218.804688 88.890625 187.5 88.890625 C 156.191406 88.890625 126.761719 101.074219 104.640625 123.195312 C 82.519531 145.316406 70.335938 174.746094 70.335938 206.054688 L 76.847656 206.054688 C 76.847656 176.480469 88.378906 148.738281 109.234375 127.835938 C 130.179688 106.933594 157.925781 95.402344 187.5 95.402344 C 217.070312 95.402344 244.816406 106.933594 265.71875 127.789062 C 286.617188 148.691406 298.101562 176.480469 298.101562 206.007812 L 304.664062 206.007812 C 304.664062 174.746094 292.476562 145.316406 270.355469 123.195312 Z M 270.355469 123.195312 " fill-opacity="1" fill-rule="nonzero"/></g><g fill="#212529" fill-opacity="1"><g transform="translate(23.844405, 272.635551)"><g><path d="M 19.328125 0 L 17.46875 -6.921875 L 7.5625 -6.921875 L 5.703125 0 L -0.21875 0 L 9.078125 -29.890625 L 16.125 -29.890625 L 25.390625 0 Z M 8.6875 -11.25 L 16.3125 -11.25 L 12.5 -25.515625 Z M 8.6875 -11.25 "/></g></g></g><g fill="#212529" fill-opacity="1"><g transform="translate(53.379415, 272.635551)"><g><path d="M 12.578125 -28.453125 C 11.484375 -28.453125 10.695312 -28.195312 10.21875 -27.6875 C 9.75 -27.1875 9.515625 -26.390625 9.515625 -25.296875 L 9.515625 -22.875 L 15 -22.875 L 14.40625 -18.90625 L 9.515625 -18.90625 L 9.515625 0 L 3.984375 0 L 3.984375 -18.90625 L 0.265625 -18.90625 L 0.265625 -22.875 L 3.984375 -22.875 L 3.984375 -25.390625 C 3.984375 -27.546875 4.679688 -29.296875 6.078125 -30.640625 C 7.472656 -31.984375 9.457031 -32.65625 12.03125 -32.65625 C 14.039062 -32.65625 16.015625 -32.207031 17.953125 -31.3125 L 16.34375 -27.59375 C 15.101562 -28.164062 13.847656 -28.453125 12.578125 -28.453125 Z M 12.578125 -28.453125 "/></g></g></g><g fill="#212529" fill-opacity="1"><g transform="translate(72.709516, 272.635551)"><g><path d="M 14.625 -23.484375 C 15.457031 -23.484375 16.21875 -23.382812 16.90625 -23.1875 L 15.953125 -17.8125 C 15.265625 -17.988281 14.585938 -18.078125 13.921875 -18.078125 C 12.566406 -18.078125 11.5 -17.59375 10.71875 -16.625 C 9.945312 -15.664062 9.328125 -14.191406 8.859375 -12.203125 L 8.859375 0 L 3.328125 0 L 3.328125 -22.875 L 8.125 -22.875 L 8.65625 -18.375 C 9.195312 -20.019531 9.984375 -21.28125 11.015625 -22.15625 C 12.054688 -23.039062 13.257812 -23.484375 14.625 -23.484375 Z M 14.625 -23.484375 "/></g></g></g><g fill="#212529" fill-opacity="1"><g transform="translate(94.07196, 272.635551)"><g><path d="M 8.859375 -22.875 L 8.859375 0 L 3.328125 0 L 3.328125 -22.875 Z M 6.0625 -34.46875 C 7.09375 -34.46875 7.929688 -34.144531 8.578125 -33.5 C 9.234375 -32.851562 9.5625 -32.050781 9.5625 -31.09375 C 9.5625 -30.144531 9.234375 -29.351562 8.578125 -28.71875 C 7.929688 -28.082031 7.09375 -27.765625 6.0625 -27.765625 C 5.050781 -27.765625 4.21875 -28.082031 3.5625 -28.71875 C 2.914062 -29.351562 2.59375 -30.144531 2.59375 -31.09375 C 2.59375 -32.050781 2.914062 -32.851562 3.5625 -33.5 C 4.21875 -34.144531 5.050781 -34.46875 6.0625 -34.46875 Z M 6.0625 -34.46875 "/></g></g></g><g fill="#212529" fill-opacity="1"><g transform="translate(110.591414, 272.635551)"><g><path d="M 3.5 0 L 3.5 -29.890625 L 20.40625 -29.890625 L 19.8125 -25.640625 L 9.21875 -25.640625 L 9.21875 -16.6875 L 18.421875 -16.6875 L 18.421875 -12.453125 L 9.21875 -12.453125 L 9.21875 0 Z M 3.5 0 "/></g></g></g><g fill="#212529" fill-opacity="1"><g transform="translate(136.061773, 272.635551)"><g><path d="M 8.859375 -22.875 L 8.859375 0 L 3.328125 0 L 3.328125 -22.875 Z M 6.0625 -34.46875 C 7.09375 -34.46875 7.929688 -34.144531 8.578125 -33.5 C 9.234375 -32.851562 9.5625 -32.050781 9.5625 -31.09375 C 9.5625 -30.144531 9.234375 -29.351562 8.578125 -28.71875 C 7.929688 -28.082031 7.09375 -27.765625 6.0625 -27.765625 C 5.050781 -27.765625 4.21875 -28.082031 3.5625 -28.71875 C 2.914062 -29.351562 2.59375 -30.144531 2.59375 -31.09375 C 2.59375 -32.050781 2.914062 -32.851562 3.5625 -33.5 C 4.21875 -34.144531 5.050781 -34.46875 6.0625 -34.46875 Z M 6.0625 -34.46875 "/></g></g></g><g fill="#212529" fill-opacity="1"><g transform="translate(152.581227, 272.635551)"><g/></g></g><g fill="#212529" fill-opacity="1"><g transform="translate(167.716947, 272.635551)"><g><path d="M 12.96875 -34.46875 C 10.84375 -31.414062 9.296875 -28.453125 8.328125 -25.578125 C 7.359375 -22.710938 6.875 -19.234375 6.875 -15.140625 C 6.875 -11.078125 7.359375 -7.601562 8.328125 -4.71875 C 9.296875 -1.832031 10.84375 1.132812 12.96875 4.1875 L 9.421875 6.578125 C 7.554688 3.953125 6.082031 1.722656 5 -0.109375 C 3.914062 -1.941406 3.015625 -4.101562 2.296875 -6.59375 C 1.578125 -9.09375 1.21875 -11.941406 1.21875 -15.140625 C 1.21875 -18.335938 1.578125 -21.179688 2.296875 -23.671875 C 3.015625 -26.171875 3.914062 -28.332031 5 -30.15625 C 6.082031 -31.988281 7.554688 -34.21875 9.421875 -36.84375 Z M 12.96875 -34.46875 "/></g></g></g><g fill="#212529" fill-opacity="1"><g transform="translate(186.052496, 272.635551)"><g><path d="M 12.328125 -29.890625 C 16.160156 -29.890625 19.132812 -29.09375 21.25 -27.5 C 23.375 -25.914062 24.4375 -23.539062 24.4375 -20.375 C 24.4375 -17.050781 23.367188 -14.5625 21.234375 -12.90625 C 19.097656 -11.25 16.257812 -10.421875 12.71875 -10.421875 L 9.21875 -10.421875 L 9.21875 0 L 3.5 0 L 3.5 -29.890625 Z M 12.28125 -14.703125 C 14.332031 -14.703125 15.875 -15.125 16.90625 -15.96875 C 17.945312 -16.820312 18.46875 -18.289062 18.46875 -20.375 C 18.46875 -23.914062 16.40625 -25.6875 12.28125 -25.6875 L 9.21875 -25.6875 L 9.21875 -14.703125 Z M 12.28125 -14.703125 "/></g></g></g><g fill="#212529" fill-opacity="1"><g transform="translate(215.933432, 272.635551)"><g><path d="M 16.4375 -1.078125 C 15.625 -0.503906 14.71875 -0.0703125 13.71875 0.21875 C 12.726562 0.507812 11.71875 0.65625 10.6875 0.65625 C 8.4375 0.625 6.726562 -0.015625 5.5625 -1.265625 C 4.394531 -2.523438 3.8125 -4.378906 3.8125 -6.828125 L 3.8125 -18.90625 L 0.21875 -18.90625 L 0.21875 -22.875 L 3.8125 -22.875 L 3.8125 -27.9375 L 9.34375 -28.59375 L 9.34375 -22.875 L 14.65625 -22.875 L 14.09375 -18.90625 L 9.34375 -18.90625 L 9.34375 -6.96875 C 9.34375 -5.84375 9.535156 -5.035156 9.921875 -4.546875 C 10.316406 -4.054688 10.929688 -3.8125 11.765625 -3.8125 C 12.597656 -3.8125 13.503906 -4.082031 14.484375 -4.625 Z M 16.4375 -1.078125 "/></g></g></g><g fill="#212529" fill-opacity="1"><g transform="translate(236.474313, 272.635551)"><g><path d="M 14.40625 0.09375 C 13.476562 2.914062 12.078125 5.113281 10.203125 6.6875 C 8.328125 8.257812 5.765625 9.171875 2.515625 9.421875 L 1.953125 5.40625 C 3.441406 5.175781 4.640625 4.851562 5.546875 4.4375 C 6.460938 4.019531 7.191406 3.460938 7.734375 2.765625 C 8.285156 2.078125 8.789062 1.15625 9.25 0 L 7.359375 0 L 0.09375 -22.875 L 5.96875 -22.875 L 10.9375 -3.671875 L 16.125 -22.875 L 21.84375 -22.875 Z M 14.40625 0.09375 "/></g></g></g><g fill="#212529" fill-opacity="1"><g transform="translate(262.679747, 272.635551)"><g><path d="M 4.578125 -36.84375 C 6.453125 -34.25 7.929688 -32.03125 9.015625 -30.1875 C 10.097656 -28.34375 11 -26.179688 11.71875 -23.703125 C 12.4375 -21.222656 12.796875 -18.367188 12.796875 -15.140625 C 12.796875 -11.910156 12.4375 -9.054688 11.71875 -6.578125 C 11 -4.097656 10.097656 -1.929688 9.015625 -0.078125 C 7.929688 1.765625 6.453125 3.984375 4.578125 6.578125 L 1.078125 4.1875 C 3.179688 1.132812 4.722656 -1.832031 5.703125 -4.71875 C 6.679688 -7.601562 7.171875 -11.078125 7.171875 -15.140625 C 7.171875 -19.203125 6.679688 -22.664062 5.703125 -25.53125 C 4.722656 -28.40625 3.179688 -31.382812 1.078125 -34.46875 Z M 4.578125 -36.84375 "/></g></g></g><g fill="#212529" fill-opacity="1"><g transform="translate(281.015296, 272.635551)"><g/></g></g><g fill="#212529" fill-opacity="1"><g transform="translate(296.151006, 272.635551)"><g><path d="M 9.21875 -29.890625 L 9.21875 -4.671875 L 21.1875 -4.671875 L 20.546875 0 L 3.5 0 L 3.5 -29.890625 Z M 9.21875 -29.890625 "/></g></g></g><g fill="#212529" fill-opacity="1"><g transform="translate(322.356441, 272.635551)"><g><path d="M 16.4375 -1.078125 C 15.625 -0.503906 14.71875 -0.0703125 13.71875 0.21875 C 12.726562 0.507812 11.71875 0.65625 10.6875 0.65625 C 8.4375 0.625 6.726562 -0.015625 5.5625 -1.265625 C 4.394531 -2.523438 3.8125 -4.378906 3.8125 -6.828125 L 3.8125 -18.90625 L 0.21875 -18.90625 L 0.21875 -22.875 L 3.8125 -22.875 L 3.8125 -27.9375 L 9.34375 -28.59375 L 9.34375 -22.875 L 14.65625 -22.875 L 14.09375 -18.90625 L 9.34375 -18.90625 L 9.34375 -6.96875 C 9.34375 -5.84375 9.535156 -5.035156 9.921875 -4.546875 C 10.316406 -4.054688 10.929688 -3.8125 11.765625 -3.8125 C 12.597656 -3.8125 13.503906 -4.082031 14.484375 -4.625 Z M 16.4375 -1.078125 "/></g></g></g><g fill="#212529" fill-opacity="1"><g transform="translate(342.897321, 272.635551)"><g><path d="M 22.578125 -32.046875 L 22.578125 0 L 17.6875 0 L 17.296875 -2.890625 C 16.578125 -1.796875 15.660156 -0.929688 14.546875 -0.296875 C 13.441406 0.335938 12.179688 0.65625 10.765625 0.65625 C 7.972656 0.65625 5.828125 -0.425781 4.328125 -2.59375 C 2.828125 -4.757812 2.078125 -7.703125 2.078125 -11.421875 C 2.078125 -13.753906 2.453125 -15.832031 3.203125 -17.65625 C 3.953125 -19.488281 5.023438 -20.925781 6.421875 -21.96875 C 7.816406 -23.007812 9.4375 -23.53125 11.28125 -23.53125 C 13.476562 -23.53125 15.398438 -22.707031 17.046875 -21.0625 L 17.046875 -32.65625 Z M 12.328125 -3.546875 C 13.304688 -3.546875 14.171875 -3.78125 14.921875 -4.25 C 15.671875 -4.726562 16.378906 -5.472656 17.046875 -6.484375 L 17.046875 -16.953125 C 16.378906 -17.765625 15.707031 -18.367188 15.03125 -18.765625 C 14.351562 -19.171875 13.566406 -19.375 12.671875 -19.375 C 11.203125 -19.375 10.039062 -18.71875 9.1875 -17.40625 C 8.34375 -16.09375 7.921875 -14.113281 7.921875 -11.46875 C 7.921875 -8.632812 8.289062 -6.601562 9.03125 -5.375 C 9.78125 -4.15625 10.878906 -3.546875 12.328125 -3.546875 Z M 12.328125 -3.546875 "/></g></g></g></svg>